<svg width="21" height="20" viewBox="0 0 21 20" fill="none" xmlns="http://www.w3.org/2000/svg">
<path fill-rule="evenodd" clip-rule="evenodd" d="M7.32892 15.9542C6.74206 15.9542 6.23141 16.4672 6.23141 17.1451C6.23141 17.823 6.74206 18.336 7.32892 18.336C7.91578 18.336 8.42642 17.823 8.42642 17.1451C8.42642 16.4672 7.91578 15.9542 7.32892 15.9542ZM4.76807 17.1451C4.76807 15.6706 5.89532 14.4385 7.32892 14.4385C8.76251 14.4385 9.88977 15.6706 9.88977 17.1451C9.88977 18.6196 8.76251 19.8517 7.32892 19.8517C5.89532 19.8517 4.76807 18.6196 4.76807 17.1451Z" fill="#2D2D2F"/>
<path fill-rule="evenodd" clip-rule="evenodd" d="M14.6463 15.9542C14.0594 15.9542 13.5488 16.4672 13.5488 17.1451C13.5488 17.823 14.0594 18.336 14.6463 18.336C15.2332 18.336 15.7438 17.823 15.7438 17.1451C15.7438 16.4672 15.2332 15.9542 14.6463 15.9542ZM12.0854 17.1451C12.0854 15.6706 13.2127 14.4385 14.6463 14.4385C16.0799 14.4385 17.2071 15.6706 17.2071 17.1451C17.2071 18.6196 16.0799 19.8517 14.6463 19.8517C13.2127 19.8517 12.0854 18.6196 12.0854 17.1451Z" fill="#2D2D2F"/>
<path fill-rule="evenodd" clip-rule="evenodd" d="M0.5 0.905799C0.5 0.48725 0.827581 0.147949 1.23167 0.147949H3.3326C3.95369 0.147949 4.47555 0.631451 4.54451 1.27078L5.5445 10.5411H16.9849C17.0907 10.5411 17.1843 10.4705 17.2169 10.3663L19.0235 4.59242C19.0746 4.42924 18.9571 4.26192 18.7915 4.26192H7.32893C6.92484 4.26192 6.59726 3.92262 6.59726 3.50408C6.59726 3.08553 6.92484 2.74623 7.32893 2.74623H18.7915C19.9508 2.74623 20.773 3.91742 20.4156 5.05971L18.609 10.8336C18.3808 11.5628 17.725 12.0568 16.9849 12.0568H5.08913L4.08353 12.6689C4.01502 12.7106 3.98821 12.7552 3.97517 12.7918C3.95977 12.8351 3.9558 12.8922 3.97178 12.953C3.98775 13.0139 4.01911 13.061 4.05356 13.0902C4.08273 13.115 4.12765 13.1393 4.20711 13.1393H16.4748C16.8789 13.1393 17.2065 13.4786 17.2065 13.8972C17.2065 14.3157 16.8789 14.655 16.4748 14.655H4.20711C2.46744 14.655 1.84224 12.2753 3.34205 11.3622L4.11019 10.8946L3.11444 1.66365H1.23167C0.827581 1.66365 0.5 1.32435 0.5 0.905799Z" fill="#2D2D2F"/>
</svg>
