<svg width="20" height="20" viewBox="0 0 20 20" fill="none" xmlns="http://www.w3.org/2000/svg">
<path fill-rule="evenodd" clip-rule="evenodd" d="M6.82892 15.9542C6.24206 15.9542 5.73141 16.4672 5.73141 17.1451C5.73141 17.823 6.24206 18.336 6.82892 18.336C7.41578 18.336 7.92642 17.823 7.92642 17.1451C7.92642 16.4672 7.41578 15.9542 6.82892 15.9542ZM4.26807 17.1451C4.26807 15.6706 5.39532 14.4385 6.82892 14.4385C8.26251 14.4385 9.38977 15.6706 9.38977 17.1451C9.38977 18.6196 8.26251 19.8517 6.82892 19.8517C5.39532 19.8517 4.26807 18.6196 4.26807 17.1451Z" fill="white"/>
<path fill-rule="evenodd" clip-rule="evenodd" d="M14.1463 15.9542C13.5594 15.9542 13.0488 16.4672 13.0488 17.1451C13.0488 17.823 13.5594 18.336 14.1463 18.336C14.7332 18.336 15.2438 17.823 15.2438 17.1451C15.2438 16.4672 14.7332 15.9542 14.1463 15.9542ZM11.5854 17.1451C11.5854 15.6706 12.7127 14.4385 14.1463 14.4385C15.5799 14.4385 16.7071 15.6706 16.7071 17.1451C16.7071 18.6196 15.5799 19.8517 14.1463 19.8517C12.7127 19.8517 11.5854 18.6196 11.5854 17.1451Z" fill="white"/>
<path fill-rule="evenodd" clip-rule="evenodd" d="M0 0.905799C0 0.48725 0.327581 0.147949 0.731672 0.147949H2.8326C3.45369 0.147949 3.97555 0.631451 4.04451 1.27078L5.0445 10.5411H16.4849C16.5907 10.5411 16.6843 10.4705 16.7169 10.3663L18.5235 4.59242C18.5746 4.42924 18.4571 4.26192 18.2915 4.26192H6.82893C6.42484 4.26192 6.09726 3.92262 6.09726 3.50408C6.09726 3.08553 6.42484 2.74623 6.82893 2.74623H18.2915C19.4508 2.74623 20.273 3.91742 19.9156 5.05971L18.109 10.8336C17.8808 11.5628 17.225 12.0568 16.4849 12.0568H4.58913L3.58353 12.6689C3.51502 12.7106 3.48821 12.7552 3.47517 12.7918C3.45977 12.8351 3.4558 12.8922 3.47178 12.953C3.48775 13.0139 3.51911 13.061 3.55356 13.0902C3.58273 13.115 3.62765 13.1393 3.70711 13.1393H15.9748C16.3789 13.1393 16.7065 13.4786 16.7065 13.8972C16.7065 14.3157 16.3789 14.655 15.9748 14.655H3.70711C1.96744 14.655 1.34224 12.2753 2.84205 11.3622L3.61019 10.8946L2.61444 1.66365H0.731672C0.327581 1.66365 0 1.32435 0 0.905799Z" fill="white"/>
</svg>
