<svg width="17" height="16" viewBox="0 0 17 16" fill="none" xmlns="http://www.w3.org/2000/svg">
<path fill-rule="evenodd" clip-rule="evenodd" d="M3.48614 0.826215C4.08455 0.432247 4.84432 0.659022 5.18757 1.23111L6.69763 3.74787C7.04335 4.32407 6.87541 5.07024 6.31617 5.44277L5.26389 6.14371C5.17913 6.20017 5.166 6.30322 5.21438 6.37253C5.72095 7.09822 6.59481 8.29294 7.33834 9.03647C8.08194 9.78008 9.27684 10.654 10.0025 11.1606C10.0718 11.2089 10.1748 11.1958 10.2313 11.1111L10.9328 10.0588C11.3054 9.49988 12.0514 9.33214 12.6274 9.67777L15.1443 11.1879C15.7165 11.5312 15.9432 12.2912 15.5489 12.8896C15.2834 13.2927 14.8852 13.8431 14.4026 14.336C13.9294 14.8194 13.3252 15.2996 12.6408 15.4831C11.6772 15.7413 10.5372 15.4128 9.71758 15.0865C8.8666 14.7477 8.21107 14.3484 8.15544 14.3142L8.15216 14.3122L8.1442 14.3072L8.1374 14.3028L8.13618 14.302C8.05975 14.2515 5.91277 12.8326 4.72741 11.6472C3.54207 10.4619 2.12357 8.31549 2.07321 8.23921L2.07203 8.23742L2.06761 8.23062L2.06259 8.22266L2.06058 8.2194C2.02644 8.16386 1.62708 7.50832 1.28825 6.65731C0.961902 5.83763 0.63341 4.69763 0.891774 3.73396C1.07529 3.04946 1.55573 2.44531 2.03928 1.97219C2.53237 1.48975 3.08292 1.09167 3.48614 0.826215ZM4.16795 1.71215C4.13706 1.70434 4.10778 1.70846 4.0793 1.7272C3.70681 1.97244 3.21856 2.32753 2.79368 2.74324C2.35927 3.16827 2.04256 3.60725 1.93369 4.01331C1.77362 4.61034 1.97195 5.45831 2.29045 6.25828C2.58659 7.00209 2.93658 7.58402 2.97661 7.64968C3.07149 7.79307 4.4101 9.80437 5.49018 10.8845C6.5703 11.9646 8.58163 13.3032 8.72512 13.3982C8.79085 13.4383 9.37278 13.7882 10.1166 14.0843C10.9165 14.4028 11.7645 14.6011 12.3616 14.4411C12.7676 14.3323 13.2067 14.0157 13.6318 13.5814C14.0476 13.1567 14.4028 12.6686 14.6481 12.2962C14.6669 12.2677 14.671 12.2384 14.6632 12.2075C14.6549 12.1745 14.6318 12.1384 14.5893 12.1129L12.0724 10.6028C11.9902 10.5534 11.8836 10.5773 11.8304 10.6572L11.1288 11.7095C10.7465 12.283 9.96441 12.4495 9.38506 12.0451C8.66018 11.5391 7.3937 10.6174 6.57557 9.79924C5.75752 8.98119 4.83588 7.71489 4.32986 6.98998C3.92533 6.41047 4.0921 5.62814 4.66586 5.24594L5.71814 4.54499C5.79803 4.49178 5.82202 4.38518 5.77264 4.30287L4.26258 1.7861C4.23707 1.7436 4.20094 1.7205 4.16795 1.71215Z" fill="#2D2D2F"/>
<path fill-rule="evenodd" clip-rule="evenodd" d="M8.65419 3.77386C8.69089 3.47825 8.96028 3.26837 9.25589 3.30507L9.18944 3.84032C9.25589 3.30507 9.25568 3.30505 9.25589 3.30507L9.25677 3.30518L9.25778 3.30531L9.26013 3.30561L9.26623 3.30643L9.28395 3.30898C9.29817 3.31111 9.31719 3.31415 9.34071 3.31831C9.38774 3.32664 9.45288 3.33948 9.53388 3.35863C9.69584 3.3969 9.92166 3.46047 10.1934 3.56368C10.7371 3.77021 11.4651 4.13566 12.2315 4.77437C12.9988 5.41376 13.4465 6.02855 13.7044 6.50019C13.833 6.73535 13.9136 6.93323 13.9631 7.0786C13.9878 7.15126 14.0047 7.21072 14.016 7.2551C14.0217 7.27729 14.0259 7.29571 14.029 7.31012L14.0329 7.32871L14.0342 7.33569L14.0348 7.3386L14.035 7.3399C14.0351 7.3402 14.0352 7.34111 13.5043 7.43604L14.0352 7.34111C14.0877 7.63434 13.8925 7.91455 13.5992 7.96698C13.3081 8.01902 13.0299 7.82702 12.9745 7.53735C12.9741 7.53541 12.9729 7.53008 12.9707 7.52155C12.9661 7.50351 12.9572 7.47114 12.9419 7.42616C12.9113 7.33626 12.8553 7.19561 12.758 7.01783C12.5642 6.66355 12.2029 6.15468 11.5409 5.60306C10.8782 5.05076 10.2577 4.74202 9.81036 4.5721C9.58655 4.48709 9.40614 4.43687 9.28577 4.40842C9.22561 4.3942 9.18054 4.38544 9.15268 4.38051C9.13875 4.37805 9.12913 4.37654 9.12409 4.37578L9.12018 4.37522C8.82605 4.33717 8.6176 4.06854 8.65419 3.77386Z" fill="#2D2D2F"/>
<path fill-rule="evenodd" clip-rule="evenodd" d="M8.65597 0.884263C8.69986 0.589636 8.97429 0.38638 9.26892 0.430278L9.18944 0.963747C9.26892 0.430278 9.26866 0.430239 9.26892 0.430278L9.26999 0.430438L9.27123 0.430627L9.27424 0.431092L9.28234 0.432394L9.30677 0.436608C9.32665 0.440183 9.35366 0.445356 9.38739 0.452521C9.45485 0.466851 9.54922 0.48916 9.66719 0.522617C9.90312 0.58953 10.2335 0.701069 10.6318 0.882589C11.4292 1.24605 12.4951 1.88853 13.616 3.00947C14.7369 4.13041 15.3794 5.19627 15.7429 5.99368C15.9244 6.39193 16.0359 6.72236 16.1029 6.95829C16.1363 7.07625 16.1586 7.17062 16.173 7.23808C16.1801 7.27181 16.1853 7.29883 16.1889 7.31871L16.1931 7.34313L16.1944 7.35124L16.1948 7.35425L16.195 7.35549C16.1951 7.35575 16.1952 7.35656 15.6617 7.43604L16.1952 7.35656C16.2391 7.65118 16.0358 7.92561 15.7412 7.96951C15.4474 8.01328 15.1737 7.81131 15.1286 7.51805L15.1272 7.50962C15.1256 7.5006 15.1226 7.48467 15.1178 7.46222C15.1082 7.41733 15.0917 7.34641 15.0651 7.25262C15.0119 7.06505 14.9186 6.78614 14.7613 6.44108C14.4472 5.75185 13.8761 4.79512 12.8532 3.77224C11.8304 2.74936 10.8736 2.1783 10.1844 1.86415C9.83933 1.70687 9.56043 1.6136 9.37285 1.5604C9.27907 1.5338 9.20815 1.51723 9.16325 1.50769C9.1408 1.50292 9.12487 1.49992 9.11586 1.4983M8.65597 0.884263C8.61219 1.17806 8.81418 1.45177 9.10746 1.49684L8.65597 0.884263ZM15.1285 7.517C15.1285 7.51695 15.1285 7.51706 15.1285 7.517V7.517ZM15.1283 7.51598C15.1283 7.51599 15.1283 7.51598 15.1283 7.51598V7.51598Z" fill="#2D2D2F"/>
</svg>
