<svg width="179" height="36" viewBox="0 0 179 36" fill="none" xmlns="http://www.w3.org/2000/svg">
<rect width="179" height="35.1516" rx="10" fill="white"/>
<path fill-rule="evenodd" clip-rule="evenodd" d="M22.6873 10.4019C23.2857 10.0079 24.0455 10.2347 24.3887 10.8068L25.8988 13.3236C26.2445 13.8998 26.0766 14.6459 25.5173 15.0184L24.4651 15.7194C24.3803 15.7759 24.3672 15.8789 24.4156 15.9482C24.9221 16.6739 25.796 17.8686 26.5395 18.6122C27.2831 19.3558 28.478 20.2297 29.2037 20.7363C29.273 20.7846 29.376 20.7715 29.4325 20.6868L30.134 19.6345C30.5066 19.0756 31.2526 18.9078 31.8286 19.2535L34.3454 20.7635C34.9176 21.1069 35.1443 21.8669 34.7501 22.4653C34.4845 22.8684 34.0863 23.4188 33.6038 23.9117C33.1306 24.3951 32.5264 24.8753 31.842 25.0587C30.8783 25.317 29.7384 24.9885 28.9188 24.6622C28.0678 24.3234 27.4122 23.9241 27.3566 23.8899L27.3533 23.8879L27.3454 23.8829L27.3386 23.8785L27.3374 23.8777C27.2609 23.8272 25.1139 22.4083 23.9286 21.2229C22.7432 20.0376 21.3247 17.8912 21.2744 17.8149L21.2732 17.8131L21.2688 17.8063L21.2638 17.7983L21.2618 17.7951C21.2276 17.7395 20.8282 17.084 20.4894 16.233C20.1631 15.4133 19.8346 14.2733 20.0929 13.3096C20.2765 12.6251 20.7569 12.021 21.2405 11.5479C21.7335 11.0654 22.2841 10.6674 22.6873 10.4019ZM23.3691 11.2878C23.3382 11.28 23.309 11.2841 23.2805 11.3029C22.908 11.5481 22.4197 11.9032 21.9949 12.3189C21.5604 12.744 21.2437 13.1829 21.1349 13.589C20.9748 14.186 21.1731 15.034 21.4916 15.834C21.7878 16.5778 22.1378 17.1597 22.1778 17.2254C22.2727 17.3688 23.6113 19.38 24.6914 20.4601C25.7715 21.5403 27.7828 22.8789 27.9263 22.9739C27.992 23.0139 28.574 23.3639 29.3177 23.66C30.1177 23.9785 30.9657 24.1768 31.5627 24.0168C31.9688 23.908 32.4078 23.5914 32.833 23.1571C33.2487 22.7324 33.604 22.2443 33.8493 21.8719C33.8681 21.8434 33.8722 21.8141 33.8644 21.7832C33.856 21.7502 33.8329 21.714 33.7904 21.6885L31.2736 20.1784C31.1913 20.1291 31.0848 20.153 31.0315 20.2329L30.33 21.2852C29.9477 21.8586 29.1656 22.0252 28.5862 21.6208C27.8613 21.1148 26.5949 20.193 25.7767 19.3749C24.9587 18.5569 24.0371 17.2906 23.531 16.5657C23.1265 15.9862 23.2933 15.2038 23.867 14.8216L24.9193 14.1207C24.9992 14.0675 25.0232 13.9609 24.9738 13.8786L23.4637 11.3618C23.4382 11.3193 23.4021 11.2962 23.3691 11.2878Z" fill="#2D2D2F"/>
<path fill-rule="evenodd" clip-rule="evenodd" d="M27.8554 13.3495C27.8921 13.0539 28.1615 12.8441 28.4571 12.8808L28.3906 13.416C28.4571 12.8808 28.4568 12.8807 28.4571 12.8808L28.4579 12.8809L28.4589 12.881L28.4613 12.8813L28.4674 12.8821L28.4851 12.8847C28.4993 12.8868 28.5184 12.8898 28.5419 12.894C28.5889 12.9023 28.654 12.9152 28.7351 12.9343C28.897 12.9726 29.1228 13.0362 29.3946 13.1394C29.9383 13.3459 30.6662 13.7113 31.4327 14.3501C32.1999 14.9894 32.6476 15.6042 32.9056 16.0759C33.0342 16.311 33.1147 16.5089 33.1642 16.6543C33.189 16.7269 33.2059 16.7864 33.2172 16.8308C33.2229 16.853 33.2271 16.8714 33.2302 16.8858L33.2341 16.9044L33.2354 16.9114L33.236 16.9143L33.2362 16.9156C33.2362 16.9159 33.2364 16.9168 32.7055 17.0117L33.2364 16.9168C33.2888 17.21 33.0936 17.4902 32.8004 17.5427C32.5093 17.5947 32.231 17.4027 32.1757 17.113C32.1753 17.1111 32.1741 17.1058 32.1719 17.0972C32.1673 17.0792 32.1583 17.0468 32.143 17.0018C32.1124 16.9119 32.0564 16.7713 31.9592 16.5935C31.7654 16.2392 31.4041 15.7304 30.7421 15.1787C30.0793 14.6264 29.4589 14.3177 29.0115 14.1478C28.7877 14.0628 28.6073 14.0126 28.4869 13.9841C28.4268 13.9699 28.3817 13.9611 28.3538 13.9562C28.3399 13.9537 28.3303 13.9522 28.3253 13.9515L28.3214 13.9509C28.0272 13.9129 27.8188 13.6442 27.8554 13.3495Z" fill="#2D2D2F"/>
<path fill-rule="evenodd" clip-rule="evenodd" d="M27.8571 10.4599C27.901 10.1653 28.1755 9.96206 28.4701 10.006L28.3906 10.5394C28.4701 10.006 28.4698 10.0059 28.4701 10.006L28.4712 10.0061L28.4724 10.0063L28.4754 10.0068L28.4835 10.0081L28.5079 10.0123C28.5278 10.0159 28.5548 10.021 28.5886 10.0282C28.656 10.0425 28.7504 10.0648 28.8684 10.0983C29.1043 10.1652 29.4347 10.2768 29.833 10.4583C30.6304 10.8217 31.6962 11.4642 32.8172 12.5852C33.9381 13.7061 34.5806 14.772 34.9441 15.5694C35.1256 15.9676 35.2371 16.298 35.304 16.534C35.3375 16.6519 35.3598 16.7463 35.3741 16.8138C35.3813 16.8475 35.3865 16.8745 35.39 16.8944L35.3943 16.9188L35.3956 16.9269L35.396 16.9299L35.3962 16.9312C35.3962 16.9314 35.3964 16.9322 34.8629 17.0117L35.3964 16.9322C35.4403 17.2269 35.237 17.5013 34.9424 17.5452C34.6486 17.589 34.3749 17.387 34.3298 17.0937L34.3284 17.0853C34.3267 17.0763 34.3237 17.0604 34.319 17.0379C34.3094 16.993 34.2928 16.9221 34.2662 16.8283C34.213 16.6407 34.1198 16.3618 33.9625 16.0168C33.6483 15.3275 33.0773 14.3708 32.0544 13.3479C31.0315 12.325 30.0748 11.754 29.3856 11.4398C29.0405 11.2826 28.7616 11.1893 28.574 11.1361C28.4802 11.1095 28.4093 11.0929 28.3644 11.0834C28.342 11.0786 28.326 11.0756 28.317 11.074M27.8571 10.4599C27.8134 10.7537 28.0154 11.0275 28.3086 11.0725L27.8571 10.4599ZM34.3297 17.0927C34.3296 17.0926 34.3297 17.0927 34.3297 17.0927V17.0927ZM34.3295 17.0917C34.3295 17.0917 34.3295 17.0917 34.3295 17.0917V17.0917Z" fill="#2D2D2F"/>
</svg>
