<svg width="16" height="16" viewBox="0 0 16 16" fill="none" xmlns="http://www.w3.org/2000/svg">
<path fill-rule="evenodd" clip-rule="evenodd" d="M2.98614 0.826215C3.58455 0.432247 4.34432 0.659022 4.68757 1.23111L6.19763 3.74787C6.54335 4.32407 6.37541 5.07024 5.81617 5.44277L4.76389 6.14371C4.67913 6.20017 4.666 6.30322 4.71438 6.37253C5.22095 7.09822 6.09481 8.29294 6.83834 9.03647C7.58194 9.78008 8.77684 10.654 9.50249 11.1606C9.57179 11.2089 9.67481 11.1958 9.73128 11.1111L10.4328 10.0588C10.8054 9.49988 11.5514 9.33214 12.1274 9.67777L14.6443 11.1879C15.2165 11.5312 15.4432 12.2912 15.0489 12.8896C14.7834 13.2927 14.3852 13.8431 13.9026 14.336C13.4294 14.8194 12.8252 15.2996 12.1408 15.4831C11.1772 15.7413 10.0372 15.4128 9.21758 15.0865C8.3666 14.7477 7.71107 14.3484 7.65544 14.3142L7.65216 14.3122L7.6442 14.3072L7.6374 14.3028L7.63618 14.302C7.55975 14.2515 5.41277 12.8326 4.22741 11.6472C3.04207 10.4619 1.62357 8.31549 1.57321 8.23921L1.57203 8.23742L1.56761 8.23062L1.56259 8.22266L1.56058 8.2194C1.52644 8.16386 1.12708 7.50832 0.78825 6.65731C0.461902 5.83763 0.13341 4.69763 0.391774 3.73396C0.575294 3.04946 1.05573 2.44531 1.53928 1.97219C2.03237 1.48975 2.58292 1.09167 2.98614 0.826215ZM3.66795 1.71215C3.63706 1.70434 3.60778 1.70846 3.5793 1.7272C3.20681 1.97244 2.71856 2.32753 2.29368 2.74324C1.85927 3.16827 1.54256 3.60725 1.43369 4.01331C1.27362 4.61034 1.47195 5.45831 1.79045 6.25828C2.08659 7.00209 2.43658 7.58402 2.47661 7.64968C2.57149 7.79307 3.9101 9.80437 4.99018 10.8845C6.0703 11.9646 8.08163 13.3032 8.22512 13.3982C8.29085 13.4383 8.87278 13.7882 9.61657 14.0843C10.4165 14.4028 11.2645 14.6011 11.8616 14.4411C12.2676 14.3323 12.7067 14.0157 13.1318 13.5814C13.5476 13.1567 13.9028 12.6686 14.1481 12.2962C14.1669 12.2677 14.171 12.2384 14.1632 12.2075C14.1549 12.1745 14.1318 12.1384 14.0893 12.1129L11.5724 10.6028C11.4902 10.5534 11.3836 10.5773 11.3304 10.6572L10.6288 11.7095C10.2465 12.283 9.46441 12.4495 8.88506 12.0451C8.16018 11.5391 6.8937 10.6174 6.07557 9.79924C5.25752 8.98119 4.33588 7.71489 3.82986 6.98998C3.42533 6.41047 3.5921 5.62814 4.16586 5.24594L5.21814 4.54499C5.29803 4.49178 5.32202 4.38518 5.27264 4.30287L3.76258 1.7861C3.73707 1.7436 3.70094 1.7205 3.66795 1.71215Z" fill="white"/>
<path fill-rule="evenodd" clip-rule="evenodd" d="M8.15419 3.77386C8.19089 3.47825 8.46028 3.26837 8.75589 3.30507L8.68944 3.84032C8.75589 3.30507 8.75568 3.30505 8.75589 3.30507L8.75677 3.30518L8.75778 3.30531L8.76013 3.30561L8.76623 3.30643L8.78395 3.30898C8.79817 3.31111 8.81719 3.31415 8.84071 3.31831C8.88774 3.32664 8.95288 3.33948 9.03388 3.35863C9.19584 3.3969 9.42166 3.46047 9.69339 3.56368C10.2371 3.77021 10.9651 4.13566 11.7315 4.77437C12.4988 5.41376 12.9465 6.02855 13.2044 6.50019C13.333 6.73535 13.4136 6.93323 13.4631 7.0786C13.4878 7.15126 13.5047 7.21072 13.516 7.2551C13.5217 7.27729 13.5259 7.29571 13.529 7.31012L13.5329 7.32871L13.5342 7.33569L13.5348 7.3386L13.535 7.3399C13.5351 7.3402 13.5352 7.34111 13.0043 7.43604L13.5352 7.34111C13.5877 7.63434 13.3925 7.91455 13.0992 7.96698C12.8081 8.01902 12.5299 7.82702 12.4745 7.53735C12.4741 7.53541 12.4729 7.53008 12.4707 7.52155C12.4661 7.50351 12.4572 7.47114 12.4419 7.42616C12.4113 7.33626 12.3553 7.19561 12.258 7.01783C12.0642 6.66355 11.7029 6.15468 11.0409 5.60306C10.3782 5.05076 9.75772 4.74202 9.31036 4.5721C9.08655 4.48709 8.90614 4.43687 8.78577 4.40842C8.72561 4.3942 8.68054 4.38544 8.65268 4.38051C8.63875 4.37805 8.62913 4.37654 8.62409 4.37578L8.62018 4.37522C8.32605 4.33717 8.1176 4.06854 8.15419 3.77386Z" fill="white"/>
<path fill-rule="evenodd" clip-rule="evenodd" d="M8.15597 0.884263C8.19986 0.589636 8.47429 0.38638 8.76892 0.430278L8.68944 0.963747C8.76892 0.430278 8.76866 0.430239 8.76892 0.430278L8.76999 0.430438L8.77123 0.430627L8.77424 0.431092L8.78234 0.432394L8.80677 0.436608C8.82665 0.440183 8.85366 0.445356 8.88739 0.452521C8.95485 0.466851 9.04922 0.48916 9.16719 0.522617C9.40312 0.58953 9.73354 0.701069 10.1318 0.882589C10.9292 1.24605 11.9951 1.88853 13.116 3.00947C14.2369 4.13041 14.8794 5.19627 15.2429 5.99368C15.4244 6.39193 15.5359 6.72236 15.6029 6.95829C15.6363 7.07625 15.6586 7.17062 15.673 7.23808C15.6801 7.27181 15.6853 7.29883 15.6889 7.31871L15.6931 7.34313L15.6944 7.35124L15.6948 7.35425L15.695 7.35549C15.6951 7.35575 15.6952 7.35656 15.1617 7.43604L15.6952 7.35656C15.7391 7.65118 15.5358 7.92561 15.2412 7.96951C14.9474 8.01328 14.6737 7.81131 14.6286 7.51805L14.6272 7.50962C14.6256 7.5006 14.6226 7.48467 14.6178 7.46222C14.6082 7.41733 14.5917 7.34641 14.5651 7.25262C14.5119 7.06505 14.4186 6.78614 14.2613 6.44108C13.9472 5.75185 13.3761 4.79512 12.3532 3.77224C11.3304 2.74936 10.3736 2.1783 9.6844 1.86415C9.33933 1.70687 9.06043 1.6136 8.87285 1.5604C8.77907 1.5338 8.70815 1.51723 8.66325 1.50769C8.6408 1.50292 8.62487 1.49992 8.61586 1.4983M8.15597 0.884263C8.11219 1.17806 8.31418 1.45177 8.60746 1.49684L8.15597 0.884263ZM14.6285 7.517C14.6285 7.51695 14.6285 7.51706 14.6285 7.517V7.517ZM14.6283 7.51598C14.6283 7.51599 14.6283 7.51598 14.6283 7.51598V7.51598Z" fill="white"/>
</svg>
