<svg width="22" height="22" viewBox="0 0 22 22" fill="none" xmlns="http://www.w3.org/2000/svg">
<path fill-rule="evenodd" clip-rule="evenodd" d="M20.3641 3.93987C20.9177 3.74217 21.5 4.15254 21.5 4.74035V15.9652C21.5 16.2872 21.3181 16.5815 21.0301 16.7255L11.2301 21.6255C10.665 21.9081 10 21.4971 10 20.8652V8.24035C10 7.88113 10.2258 7.56069 10.5641 7.43987L20.3641 3.93987ZM20 5.6627L11.5 8.69841V19.8135L20 15.5635V5.6627Z" fill="#2D2D2F"/>
<path fill-rule="evenodd" clip-rule="evenodd" d="M0 4.74035C0 4.15255 0.582321 3.74216 1.13589 3.93987L10.9359 7.43987C11.2742 7.56068 11.5 7.88112 11.5 8.24035V20.8652C11.5 21.4971 10.835 21.9081 10.2699 21.6255L0.469868 16.7255C0.181901 16.5815 0 16.2872 0 15.9652V4.74035ZM1.5 5.6627V15.5635L10 19.8135V8.69841L1.5 5.6627Z" fill="#2D2D2F"/>
<path fill-rule="evenodd" clip-rule="evenodd" d="M10.75 1.82341L2.97991 4.59845L10.75 7.37348L18.5201 4.59845L10.75 1.82341ZM10.4641 0.332722C10.649 0.266697 10.851 0.266696 11.0359 0.332722L20.7386 3.79797C21.4907 4.06659 21.4907 5.1303 20.7386 5.39893L11.0359 8.86417C10.851 8.93019 10.649 8.93019 10.4641 8.86417L0.761435 5.39893C0.00927669 5.1303 0.00928962 4.06659 0.761435 3.79796L10.4641 0.332722Z" fill="#2D2D2F"/>
</svg>
