<svg width="25" height="24" viewBox="0 0 25 24" fill="none" xmlns="http://www.w3.org/2000/svg">
<path fill-rule="evenodd" clip-rule="evenodd" d="M6.82892 19.8063C6.24206 19.8063 5.73141 20.3192 5.73141 20.9971C5.73141 21.6751 6.24206 22.188 6.82892 22.188C7.41578 22.188 7.92642 21.6751 7.92642 20.9971C7.92642 20.3192 7.41578 19.8063 6.82892 19.8063ZM4.26807 20.9971C4.26807 19.5226 5.39532 18.2906 6.82892 18.2906C8.26251 18.2906 9.38977 19.5226 9.38977 20.9971C9.38977 22.4717 8.26251 23.7037 6.82892 23.7037C5.39532 23.7037 4.26807 22.4717 4.26807 20.9971Z" fill="white"/>
<path fill-rule="evenodd" clip-rule="evenodd" d="M14.1463 19.8063C13.5594 19.8063 13.0488 20.3192 13.0488 20.9971C13.0488 21.6751 13.5594 22.188 14.1463 22.188C14.7332 22.188 15.2438 21.6751 15.2438 20.9971C15.2438 20.3192 14.7332 19.8063 14.1463 19.8063ZM11.5854 20.9971C11.5854 19.5226 12.7127 18.2906 14.1463 18.2906C15.5799 18.2906 16.7071 19.5226 16.7071 20.9971C16.7071 22.4717 15.5799 23.7037 14.1463 23.7037C12.7127 23.7037 11.5854 22.4717 11.5854 20.9971Z" fill="white"/>
<path fill-rule="evenodd" clip-rule="evenodd" d="M0 4.75785C0 4.3393 0.327581 4 0.731672 4H2.8326C3.45369 4 3.97555 4.4835 4.04451 5.12283L5.0445 14.3931H16.4849C16.5907 14.3931 16.6843 14.3225 16.7169 14.2184L18.5235 8.44447C18.5746 8.28129 18.4571 8.11398 18.2915 8.11398H6.82893C6.42484 8.11398 6.09726 7.77467 6.09726 7.35613C6.09726 6.93758 6.42484 6.59828 6.82893 6.59828H18.2915C19.4508 6.59828 20.273 7.76947 19.9156 8.91176L18.109 14.6857C17.8808 15.4149 17.225 15.9088 16.4849 15.9088H4.58913L3.58353 16.521C3.51502 16.5627 3.48821 16.6073 3.47517 16.6439C3.45977 16.6872 3.4558 16.7443 3.47178 16.8051C3.48775 16.8659 3.51911 16.9131 3.55356 16.9423C3.58273 16.967 3.62765 16.9914 3.70711 16.9914H15.9748C16.3789 16.9914 16.7065 17.3307 16.7065 17.7492C16.7065 18.1678 16.3789 18.5071 15.9748 18.5071H3.70711C1.96744 18.5071 1.34224 16.1273 2.84205 15.2143L3.61019 14.7466L2.61444 5.5157H0.731672C0.327581 5.5157 0 5.1764 0 4.75785Z" fill="white"/>
<circle cx="18" cy="7" r="7" fill="#FF594D"/>
</svg>
