<svg width="30" height="30" viewBox="0 0 30 30" fill="none" xmlns="http://www.w3.org/2000/svg">
<path fill-rule="evenodd" clip-rule="evenodd" d="M0 12.8272C0 9.97621 2.31117 7.66504 5.16213 7.66504H24.4341C27.2851 7.66504 29.5962 9.97621 29.5962 12.8272V23.8397C29.5962 26.6907 27.2851 29.0019 24.4341 29.0019H5.16213C2.31117 29.0019 0 26.6907 0 23.8397V12.8272ZM5.16213 9.72989C3.45155 9.72989 2.06485 11.1166 2.06485 12.8272V23.8397C2.06485 25.5503 3.45155 26.937 5.16213 26.937H24.4341C26.1447 26.937 27.5314 25.5503 27.5314 23.8397V12.8272C27.5314 11.1166 26.1447 9.72989 24.4341 9.72989H5.16213Z" fill="#2D2D2F"/>
<path fill-rule="evenodd" clip-rule="evenodd" d="M23.4028 2.49742C23.4028 2.2522 23.1536 2.08567 22.927 2.17942L9.67016 7.66502H23.4028V2.49742ZM22.1375 0.271463C23.7236 -0.384835 25.4676 0.78094 25.4676 2.49742V8.55979C25.4676 9.20601 24.9437 9.72988 24.2975 9.72988H5.16762C3.88703 9.72988 3.53696 7.96825 4.72024 7.47862L22.1375 0.271463Z" fill="#2D2D2F"/>
<path fill-rule="evenodd" clip-rule="evenodd" d="M1.37695 15.5803C1.37695 15.0101 1.83919 14.5479 2.40938 14.5479H27.1876C27.7578 14.5479 28.22 15.0101 28.22 15.5803C28.22 16.1505 27.7578 16.6127 27.1876 16.6127H2.40938C1.83919 16.6127 1.37695 16.1505 1.37695 15.5803Z" fill="#2D2D2F"/>
<path fill-rule="evenodd" clip-rule="evenodd" d="M4.12891 22.4631C4.12891 21.8929 4.59114 21.4307 5.16133 21.4307L13.4207 21.4307C13.9909 21.4307 14.4532 21.8929 14.4532 22.4631C14.4532 23.0333 13.9909 23.4955 13.4207 23.4955L5.16133 23.4955C4.59114 23.4955 4.12891 23.0333 4.12891 22.4631Z" fill="#2D2D2F"/>
</svg>
