<svg width="1440" height="2188" viewBox="0 0 1440 2188" fill="none" xmlns="http://www.w3.org/2000/svg">
<g clip-path="url(#clip0)">
<rect width="1440" height="2188" fill="#F8F8F8"/>
<path d="M1148.06 157.175C1148.06 146.926 1138.61 127.634 1129.53 114C1121.21 127.634 1111 146.926 1111 157.175C1111 167.424 1119.3 175.733 1129.53 175.733C1139.76 175.733 1148.06 167.424 1148.06 157.175Z" fill="#B7E4FC" fill-opacity="0.35"/>
<path d="M1200.25 157.175C1200.25 146.926 1190.79 127.634 1181.72 114C1173.4 127.634 1163.19 146.926 1163.19 157.175C1163.19 167.424 1171.48 175.733 1181.72 175.733C1191.95 175.733 1200.25 167.424 1200.25 157.175Z" fill="#B7E4FC" fill-opacity="0.35"/>
<path d="M1252.44 157.175C1252.44 146.926 1242.98 127.634 1233.91 114C1225.59 127.634 1215.38 146.926 1215.38 157.175C1215.38 167.424 1223.67 175.733 1233.91 175.733C1244.14 175.733 1252.44 167.424 1252.44 157.175Z" fill="#B7E4FC" fill-opacity="0.35"/>
<path d="M1304.62 157.175C1304.62 146.926 1295.17 127.634 1286.09 114C1277.77 127.634 1267.56 146.926 1267.56 157.175C1267.56 167.424 1275.86 175.733 1286.09 175.733C1296.33 175.733 1304.62 167.424 1304.62 157.175Z" fill="#B7E4FC" fill-opacity="0.35"/>
<path d="M1356.81 157.175C1356.81 146.926 1347.36 127.634 1338.28 114C1329.96 127.634 1319.75 146.926 1319.75 157.175C1319.75 167.424 1328.05 175.733 1338.28 175.733C1348.52 175.733 1356.81 167.424 1356.81 157.175Z" fill="#B7E4FC" fill-opacity="0.35"/>
<path d="M1390.47 114C1399.55 127.634 1409 146.926 1409 157.175C1409 167.424 1400.7 175.733 1390.47 175.733C1380.24 175.733 1371.94 167.424 1371.94 157.175C1371.94 146.926 1382.15 127.634 1390.47 114Z" fill="#B7E4FC" fill-opacity="0.35"/>
<path d="M1390.47 267.764C1399.55 281.398 1409 300.69 1409 310.939C1409 321.188 1400.7 329.497 1390.47 329.497C1380.24 329.497 1371.94 321.188 1371.94 310.939C1371.94 300.69 1382.15 281.398 1390.47 267.764Z" fill="#B7E4FC" fill-opacity="0.35"/>
<path d="M1408.77 233.792C1408.77 223.606 1399.38 204.433 1390.36 190.882C1382.09 204.433 1371.94 223.606 1371.94 233.792C1371.94 243.979 1380.18 252.236 1390.36 252.236C1400.53 252.236 1408.77 243.979 1408.77 233.792Z" fill="#B7E4FC" fill-opacity="0.35"/>
<path d="M1390.36 344.646C1399.38 358.197 1408.77 377.37 1408.77 387.556C1408.77 397.743 1400.53 406 1390.36 406C1380.18 406 1371.94 397.743 1371.94 387.556C1371.94 377.37 1382.09 358.197 1390.36 344.646Z" fill="#B7E4FC" fill-opacity="0.35"/>
<path d="M1338.28 267.764C1347.36 281.398 1356.81 300.69 1356.81 310.939C1356.81 321.188 1348.52 329.497 1338.28 329.497C1328.05 329.497 1319.75 321.188 1319.75 310.939C1319.75 300.69 1329.96 281.398 1338.28 267.764Z" fill="#B7E4FC" fill-opacity="0.35"/>
<path d="M1356.58 233.792C1356.58 223.606 1347.19 204.433 1338.17 190.882C1329.9 204.433 1319.75 223.606 1319.75 233.792C1319.75 243.979 1328 252.236 1338.17 252.236C1348.34 252.236 1356.58 243.979 1356.58 233.792Z" fill="#B7E4FC" fill-opacity="0.35"/>
<path d="M1338.17 344.646C1347.19 358.197 1356.58 377.37 1356.58 387.556C1356.58 397.743 1348.34 406 1338.17 406C1328 406 1319.75 397.743 1319.75 387.556C1319.75 377.37 1329.9 358.197 1338.17 344.646Z" fill="#B7E4FC" fill-opacity="0.35"/>
<path d="M1286.09 267.764C1295.17 281.398 1304.62 300.69 1304.62 310.939C1304.62 321.188 1296.33 329.497 1286.09 329.497C1275.86 329.497 1267.56 321.188 1267.56 310.939C1267.56 300.69 1277.77 281.398 1286.09 267.764Z" fill="#B7E4FC" fill-opacity="0.35"/>
<path d="M1304.4 233.792C1304.4 223.606 1295 204.433 1285.98 190.882C1277.71 204.433 1267.56 223.606 1267.56 233.792C1267.56 243.979 1275.81 252.236 1285.98 252.236C1296.15 252.236 1304.4 243.979 1304.4 233.792Z" fill="#B7E4FC" fill-opacity="0.35"/>
<path d="M1285.98 344.646C1295 358.197 1304.4 377.37 1304.4 387.556C1304.4 397.743 1296.15 406 1285.98 406C1275.81 406 1267.56 397.743 1267.56 387.556C1267.56 377.37 1277.71 358.197 1285.98 344.646Z" fill="#B7E4FC" fill-opacity="0.35"/>
<path d="M1233.91 267.764C1242.98 281.398 1252.44 300.69 1252.44 310.939C1252.44 321.188 1244.14 329.497 1233.91 329.497C1223.67 329.497 1215.38 321.188 1215.38 310.939C1215.38 300.69 1225.59 281.398 1233.91 267.764Z" fill="#B7E4FC" fill-opacity="0.35"/>
<path d="M1252.21 233.792C1252.21 223.606 1242.81 204.433 1233.79 190.882C1225.52 204.433 1215.38 223.606 1215.38 233.792C1215.38 243.979 1223.62 252.236 1233.79 252.236C1243.96 252.236 1252.21 243.979 1252.21 233.792Z" fill="#B7E4FC" fill-opacity="0.35"/>
<path d="M1233.79 344.646C1242.81 358.197 1252.21 377.37 1252.21 387.556C1252.21 397.743 1243.96 406 1233.79 406C1223.62 406 1215.38 397.743 1215.38 387.556C1215.38 377.37 1225.52 358.197 1233.79 344.646Z" fill="#B7E4FC" fill-opacity="0.35"/>
<path d="M1181.72 267.764C1190.79 281.398 1200.25 300.69 1200.25 310.939C1200.25 321.188 1191.95 329.497 1181.72 329.497C1171.48 329.497 1163.19 321.188 1163.19 310.939C1163.19 300.69 1173.4 281.398 1181.72 267.764Z" fill="#B7E4FC" fill-opacity="0.35"/>
<path d="M1200.02 233.792C1200.02 223.606 1190.62 204.433 1181.6 190.882C1173.34 204.433 1163.19 223.606 1163.19 233.792C1163.19 243.979 1171.43 252.236 1181.6 252.236C1191.78 252.236 1200.02 243.979 1200.02 233.792Z" fill="#B7E4FC" fill-opacity="0.35"/>
<path d="M1181.6 344.646C1190.62 358.197 1200.02 377.37 1200.02 387.556C1200.02 397.743 1191.78 406 1181.6 406C1171.43 406 1163.19 397.743 1163.19 387.556C1163.19 377.37 1173.34 358.197 1181.6 344.646Z" fill="#B7E4FC" fill-opacity="0.35"/>
<path d="M1129.53 267.764C1138.61 281.398 1148.06 300.69 1148.06 310.939C1148.06 321.188 1139.76 329.497 1129.53 329.497C1119.3 329.497 1111 321.188 1111 310.939C1111 300.69 1121.21 281.398 1129.53 267.764Z" fill="#B7E4FC" fill-opacity="0.35"/>
<path d="M1147.83 233.792C1147.83 223.606 1138.44 204.433 1129.42 190.882C1121.15 204.433 1111 223.606 1111 233.792C1111 243.979 1119.25 252.236 1129.42 252.236C1139.59 252.236 1147.83 243.979 1147.83 233.792Z" fill="#B7E4FC" fill-opacity="0.35"/>
<path d="M1129.42 344.646C1138.44 358.197 1147.83 377.37 1147.83 387.556C1147.83 397.743 1139.59 406 1129.42 406C1119.25 406 1111 397.743 1111 387.556C1111 377.37 1121.15 358.197 1129.42 344.646Z" fill="#B7E4FC" fill-opacity="0.35"/>
<path d="M1147.06 1004.18C1147.06 993.926 1137.61 974.634 1128.53 961C1120.21 974.634 1110 993.926 1110 1004.18C1110 1014.42 1118.3 1022.73 1128.53 1022.73C1138.76 1022.73 1147.06 1014.42 1147.06 1004.18Z" fill="#B7E4FC" fill-opacity="0.35"/>
<path d="M1199.25 1004.18C1199.25 993.926 1189.79 974.634 1180.72 961C1172.4 974.634 1162.19 993.926 1162.19 1004.18C1162.19 1014.42 1170.48 1022.73 1180.72 1022.73C1190.95 1022.73 1199.25 1014.42 1199.25 1004.18Z" fill="#B7E4FC" fill-opacity="0.35"/>
<path d="M1251.44 1004.18C1251.44 993.926 1241.98 974.634 1232.91 961C1224.59 974.634 1214.38 993.926 1214.38 1004.18C1214.38 1014.42 1222.67 1022.73 1232.91 1022.73C1243.14 1022.73 1251.44 1014.42 1251.44 1004.18Z" fill="#B7E4FC" fill-opacity="0.35"/>
<path d="M1303.62 1004.18C1303.62 993.926 1294.17 974.634 1285.09 961C1276.77 974.634 1266.56 993.926 1266.56 1004.18C1266.56 1014.42 1274.86 1022.73 1285.09 1022.73C1295.33 1022.73 1303.62 1014.42 1303.62 1004.18Z" fill="#B7E4FC" fill-opacity="0.35"/>
<path d="M1355.81 1004.18C1355.81 993.926 1346.36 974.634 1337.28 961C1328.96 974.634 1318.75 993.926 1318.75 1004.18C1318.75 1014.42 1327.05 1022.73 1337.28 1022.73C1347.52 1022.73 1355.81 1014.42 1355.81 1004.18Z" fill="#B7E4FC" fill-opacity="0.35"/>
<path d="M1389.47 961C1398.55 974.634 1408 993.926 1408 1004.18C1408 1014.42 1399.7 1022.73 1389.47 1022.73C1379.24 1022.73 1370.94 1014.42 1370.94 1004.18C1370.94 993.926 1381.15 974.634 1389.47 961Z" fill="#B7E4FC" fill-opacity="0.35"/>
<path d="M1389.47 1114.76C1398.55 1128.4 1408 1147.69 1408 1157.94C1408 1168.19 1399.7 1176.5 1389.47 1176.5C1379.24 1176.5 1370.94 1168.19 1370.94 1157.94C1370.94 1147.69 1381.15 1128.4 1389.47 1114.76Z" fill="#B7E4FC" fill-opacity="0.35"/>
<path d="M1407.77 1080.79C1407.77 1070.61 1398.38 1051.43 1389.36 1037.88C1381.09 1051.43 1370.94 1070.61 1370.94 1080.79C1370.94 1090.98 1379.18 1099.24 1389.36 1099.24C1399.53 1099.24 1407.77 1090.98 1407.77 1080.79Z" fill="#B7E4FC" fill-opacity="0.35"/>
<path d="M1389.36 1191.65C1398.38 1205.2 1407.77 1224.37 1407.77 1234.56C1407.77 1244.74 1399.53 1253 1389.36 1253C1379.18 1253 1370.94 1244.74 1370.94 1234.56C1370.94 1224.37 1381.09 1205.2 1389.36 1191.65Z" fill="#B7E4FC" fill-opacity="0.35"/>
<path d="M1337.28 1114.76C1346.36 1128.4 1355.81 1147.69 1355.81 1157.94C1355.81 1168.19 1347.52 1176.5 1337.28 1176.5C1327.05 1176.5 1318.75 1168.19 1318.75 1157.94C1318.75 1147.69 1328.96 1128.4 1337.28 1114.76Z" fill="#B7E4FC" fill-opacity="0.35"/>
<path d="M1355.58 1080.79C1355.58 1070.61 1346.19 1051.43 1337.17 1037.88C1328.9 1051.43 1318.75 1070.61 1318.75 1080.79C1318.75 1090.98 1327 1099.24 1337.17 1099.24C1347.34 1099.24 1355.58 1090.98 1355.58 1080.79Z" fill="#B7E4FC" fill-opacity="0.35"/>
<path d="M1337.17 1191.65C1346.19 1205.2 1355.58 1224.37 1355.58 1234.56C1355.58 1244.74 1347.34 1253 1337.17 1253C1327 1253 1318.75 1244.74 1318.75 1234.56C1318.75 1224.37 1328.9 1205.2 1337.17 1191.65Z" fill="#B7E4FC" fill-opacity="0.35"/>
<path d="M1285.09 1114.76C1294.17 1128.4 1303.62 1147.69 1303.62 1157.94C1303.62 1168.19 1295.33 1176.5 1285.09 1176.5C1274.86 1176.5 1266.56 1168.19 1266.56 1157.94C1266.56 1147.69 1276.77 1128.4 1285.09 1114.76Z" fill="#B7E4FC" fill-opacity="0.35"/>
<path d="M1303.4 1080.79C1303.4 1070.61 1294 1051.43 1284.98 1037.88C1276.71 1051.43 1266.56 1070.61 1266.56 1080.79C1266.56 1090.98 1274.81 1099.24 1284.98 1099.24C1295.15 1099.24 1303.4 1090.98 1303.4 1080.79Z" fill="#B7E4FC" fill-opacity="0.35"/>
<path d="M1284.98 1191.65C1294 1205.2 1303.4 1224.37 1303.4 1234.56C1303.4 1244.74 1295.15 1253 1284.98 1253C1274.81 1253 1266.56 1244.74 1266.56 1234.56C1266.56 1224.37 1276.71 1205.2 1284.98 1191.65Z" fill="#B7E4FC" fill-opacity="0.35"/>
<path d="M1232.91 1114.76C1241.98 1128.4 1251.44 1147.69 1251.44 1157.94C1251.44 1168.19 1243.14 1176.5 1232.91 1176.5C1222.67 1176.5 1214.38 1168.19 1214.38 1157.94C1214.38 1147.69 1224.59 1128.4 1232.91 1114.76Z" fill="#B7E4FC" fill-opacity="0.35"/>
<path d="M1251.21 1080.79C1251.21 1070.61 1241.81 1051.43 1232.79 1037.88C1224.52 1051.43 1214.38 1070.61 1214.38 1080.79C1214.38 1090.98 1222.62 1099.24 1232.79 1099.24C1242.96 1099.24 1251.21 1090.98 1251.21 1080.79Z" fill="#B7E4FC" fill-opacity="0.35"/>
<path d="M1232.79 1191.65C1241.81 1205.2 1251.21 1224.37 1251.21 1234.56C1251.21 1244.74 1242.96 1253 1232.79 1253C1222.62 1253 1214.38 1244.74 1214.38 1234.56C1214.38 1224.37 1224.52 1205.2 1232.79 1191.65Z" fill="#B7E4FC" fill-opacity="0.35"/>
<path d="M1180.72 1114.76C1189.79 1128.4 1199.25 1147.69 1199.25 1157.94C1199.25 1168.19 1190.95 1176.5 1180.72 1176.5C1170.48 1176.5 1162.19 1168.19 1162.19 1157.94C1162.19 1147.69 1172.4 1128.4 1180.72 1114.76Z" fill="#B7E4FC" fill-opacity="0.35"/>
<path d="M1199.02 1080.79C1199.02 1070.61 1189.62 1051.43 1180.6 1037.88C1172.34 1051.43 1162.19 1070.61 1162.19 1080.79C1162.19 1090.98 1170.43 1099.24 1180.6 1099.24C1190.78 1099.24 1199.02 1090.98 1199.02 1080.79Z" fill="#B7E4FC" fill-opacity="0.35"/>
<path d="M1180.6 1191.65C1189.62 1205.2 1199.02 1224.37 1199.02 1234.56C1199.02 1244.74 1190.78 1253 1180.6 1253C1170.43 1253 1162.19 1244.74 1162.19 1234.56C1162.19 1224.37 1172.34 1205.2 1180.6 1191.65Z" fill="#B7E4FC" fill-opacity="0.35"/>
<path d="M1128.53 1114.76C1137.61 1128.4 1147.06 1147.69 1147.06 1157.94C1147.06 1168.19 1138.76 1176.5 1128.53 1176.5C1118.3 1176.5 1110 1168.19 1110 1157.94C1110 1147.69 1120.21 1128.4 1128.53 1114.76Z" fill="#B7E4FC" fill-opacity="0.35"/>
<path d="M1146.83 1080.79C1146.83 1070.61 1137.44 1051.43 1128.42 1037.88C1120.15 1051.43 1110 1070.61 1110 1080.79C1110 1090.98 1118.25 1099.24 1128.42 1099.24C1138.59 1099.24 1146.83 1090.98 1146.83 1080.79Z" fill="#B7E4FC" fill-opacity="0.35"/>
<path d="M1128.42 1191.65C1137.44 1205.2 1146.83 1224.37 1146.83 1234.56C1146.83 1244.74 1138.59 1253 1128.42 1253C1118.25 1253 1110 1244.74 1110 1234.56C1110 1224.37 1120.15 1205.2 1128.42 1191.65Z" fill="#B7E4FC" fill-opacity="0.35"/>
<path d="M549.061 1791.18C549.061 1780.93 539.607 1761.63 530.53 1748C522.211 1761.63 512 1780.93 512 1791.18C512 1801.42 520.297 1809.73 530.53 1809.73C540.764 1809.73 549.061 1801.42 549.061 1791.18Z" fill="#B7E4FC" fill-opacity="0.35"/>
<path d="M601.249 1791.18C601.249 1780.93 591.794 1761.63 582.718 1748C574.398 1761.63 564.188 1780.93 564.188 1791.18C564.188 1801.42 572.484 1809.73 582.718 1809.73C592.952 1809.73 601.249 1801.42 601.249 1791.18Z" fill="#B7E4FC" fill-opacity="0.35"/>
<path d="M653.437 1791.18C653.437 1780.93 643.982 1761.63 634.906 1748C626.586 1761.63 616.376 1780.93 616.376 1791.18C616.376 1801.42 624.672 1809.73 634.906 1809.73C645.14 1809.73 653.437 1801.42 653.437 1791.18Z" fill="#B7E4FC" fill-opacity="0.35"/>
<path d="M705.624 1791.18C705.624 1780.93 696.17 1761.63 687.094 1748C678.774 1761.63 668.563 1780.93 668.563 1791.18C668.563 1801.42 676.86 1809.73 687.094 1809.73C697.328 1809.73 705.624 1801.42 705.624 1791.18Z" fill="#B7E4FC" fill-opacity="0.35"/>
<path d="M757.812 1791.18C757.812 1780.93 748.358 1761.63 739.282 1748C730.962 1761.63 720.751 1780.93 720.751 1791.18C720.751 1801.42 729.048 1809.73 739.282 1809.73C749.516 1809.73 757.812 1801.42 757.812 1791.18Z" fill="#B7E4FC" fill-opacity="0.35"/>
<path d="M791.47 1748C800.546 1761.63 810 1780.93 810 1791.18C810 1801.42 801.703 1809.73 791.47 1809.73C781.236 1809.73 772.939 1801.42 772.939 1791.18C772.939 1780.93 783.15 1761.63 791.47 1748Z" fill="#B7E4FC" fill-opacity="0.35"/>
<path d="M791.47 1901.76C800.546 1915.4 810 1934.69 810 1944.94C810 1955.19 801.703 1963.5 791.47 1963.5C781.236 1963.5 772.939 1955.19 772.939 1944.94C772.939 1934.69 783.15 1915.4 791.47 1901.76Z" fill="#B7E4FC" fill-opacity="0.35"/>
<path d="M809.772 1867.79C809.772 1857.61 800.376 1838.43 791.356 1824.88C783.087 1838.43 772.939 1857.61 772.939 1867.79C772.939 1877.98 781.185 1886.24 791.356 1886.24C801.527 1886.24 809.772 1877.98 809.772 1867.79Z" fill="#B7E4FC" fill-opacity="0.35"/>
<path d="M791.356 1978.65C800.376 1992.2 809.772 2011.37 809.772 2021.56C809.772 2031.74 801.527 2040 791.356 2040C781.185 2040 772.939 2031.74 772.939 2021.56C772.939 2011.37 783.087 1992.2 791.356 1978.65Z" fill="#B7E4FC" fill-opacity="0.35"/>
<path d="M739.282 1901.76C748.358 1915.4 757.812 1934.69 757.812 1944.94C757.812 1955.19 749.516 1963.5 739.282 1963.5C729.048 1963.5 720.751 1955.19 720.751 1944.94C720.751 1934.69 730.962 1915.4 739.282 1901.76Z" fill="#B7E4FC" fill-opacity="0.35"/>
<path d="M757.585 1867.79C757.585 1857.61 748.188 1838.43 739.168 1824.88C730.899 1838.43 720.751 1857.61 720.751 1867.79C720.751 1877.98 728.997 1886.24 739.168 1886.24C749.339 1886.24 757.585 1877.98 757.585 1867.79Z" fill="#B7E4FC" fill-opacity="0.35"/>
<path d="M739.168 1978.65C748.188 1992.2 757.585 2011.37 757.585 2021.56C757.585 2031.74 749.339 2040 739.168 2040C728.997 2040 720.751 2031.74 720.751 2021.56C720.751 2011.37 730.899 1992.2 739.168 1978.65Z" fill="#B7E4FC" fill-opacity="0.35"/>
<path d="M687.094 1901.76C696.17 1915.4 705.624 1934.69 705.624 1944.94C705.624 1955.19 697.328 1963.5 687.094 1963.5C676.86 1963.5 668.563 1955.19 668.563 1944.94C668.563 1934.69 678.774 1915.4 687.094 1901.76Z" fill="#B7E4FC" fill-opacity="0.35"/>
<path d="M705.397 1867.79C705.397 1857.61 696.001 1838.43 686.98 1824.88C678.711 1838.43 668.563 1857.61 668.563 1867.79C668.563 1877.98 676.809 1886.24 686.98 1886.24C697.152 1886.24 705.397 1877.98 705.397 1867.79Z" fill="#B7E4FC" fill-opacity="0.35"/>
<path d="M686.98 1978.65C696.001 1992.2 705.397 2011.37 705.397 2021.56C705.397 2031.74 697.152 2040 686.98 2040C676.809 2040 668.563 2031.74 668.563 2021.56C668.563 2011.37 678.711 1992.2 686.98 1978.65Z" fill="#B7E4FC" fill-opacity="0.35"/>
<path d="M634.906 1901.76C643.982 1915.4 653.437 1934.69 653.437 1944.94C653.437 1955.19 645.14 1963.5 634.906 1963.5C624.672 1963.5 616.376 1955.19 616.376 1944.94C616.376 1934.69 626.586 1915.4 634.906 1901.76Z" fill="#B7E4FC" fill-opacity="0.35"/>
<path d="M653.209 1867.79C653.209 1857.61 643.813 1838.43 634.792 1824.88C626.524 1838.43 616.376 1857.61 616.376 1867.79C616.376 1877.98 624.621 1886.24 634.792 1886.24C644.964 1886.24 653.209 1877.98 653.209 1867.79Z" fill="#B7E4FC" fill-opacity="0.35"/>
<path d="M634.792 1978.65C643.813 1992.2 653.209 2011.37 653.209 2021.56C653.209 2031.74 644.964 2040 634.792 2040C624.621 2040 616.376 2031.74 616.376 2021.56C616.376 2011.37 626.524 1992.2 634.792 1978.65Z" fill="#B7E4FC" fill-opacity="0.35"/>
<path d="M582.718 1901.76C591.794 1915.4 601.249 1934.69 601.249 1944.94C601.249 1955.19 592.952 1963.5 582.718 1963.5C572.484 1963.5 564.188 1955.19 564.188 1944.94C564.188 1934.69 574.398 1915.4 582.718 1901.76Z" fill="#B7E4FC" fill-opacity="0.35"/>
<path d="M601.021 1867.79C601.021 1857.61 591.625 1838.43 582.605 1824.88C574.336 1838.43 564.188 1857.61 564.188 1867.79C564.188 1877.98 572.433 1886.24 582.605 1886.24C592.776 1886.24 601.021 1877.98 601.021 1867.79Z" fill="#B7E4FC" fill-opacity="0.35"/>
<path d="M582.605 1978.65C591.625 1992.2 601.021 2011.37 601.021 2021.56C601.021 2031.74 592.776 2040 582.605 2040C572.433 2040 564.188 2031.74 564.188 2021.56C564.188 2011.37 574.336 1992.2 582.605 1978.65Z" fill="#B7E4FC" fill-opacity="0.35"/>
<path d="M530.53 1901.76C539.607 1915.4 549.061 1934.69 549.061 1944.94C549.061 1955.19 540.764 1963.5 530.53 1963.5C520.297 1963.5 512 1955.19 512 1944.94C512 1934.69 522.211 1915.4 530.53 1901.76Z" fill="#B7E4FC" fill-opacity="0.35"/>
<path d="M548.833 1867.79C548.833 1857.61 539.437 1838.43 530.417 1824.88C522.148 1838.43 512 1857.61 512 1867.79C512 1877.98 520.246 1886.24 530.417 1886.24C540.588 1886.24 548.833 1877.98 548.833 1867.79Z" fill="#B7E4FC" fill-opacity="0.35"/>
<path d="M530.417 1978.65C539.437 1992.2 548.833 2011.37 548.833 2021.56C548.833 2031.74 540.588 2040 530.417 2040C520.246 2040 512 2031.74 512 2021.56C512 2011.37 522.148 1992.2 530.417 1978.65Z" fill="#B7E4FC" fill-opacity="0.35"/>
</g>
<defs>
<clipPath id="clip0">
<rect width="1440" height="2188" fill="white"/>
</clipPath>
</defs>
</svg>
