<svg width="30" height="22" viewBox="0 0 30 22" fill="none" xmlns="http://www.w3.org/2000/svg">
<path fill-rule="evenodd" clip-rule="evenodd" d="M22.0247 8.0755C22.0247 6.74505 23.1032 5.6665 24.4337 5.6665H27.1868C28.5173 5.6665 29.5958 6.74505 29.5958 8.0755V19.0881C29.5958 20.4185 28.5173 21.497 27.1868 21.497H7.91486C6.5844 21.497 5.50586 20.4185 5.50586 19.0881V16.3349C5.50586 15.0045 6.5844 13.9259 7.91486 13.9259H21.6805C21.8706 13.9259 22.0247 13.7718 22.0247 13.5818V8.0755ZM24.4337 7.73136C24.2436 7.73136 24.0895 7.88544 24.0895 8.0755V13.5818C24.0895 14.9122 23.011 15.9908 21.6805 15.9908H7.91486C7.72479 15.9908 7.57071 16.1448 7.57071 16.3349V19.0881C7.57071 19.2781 7.72479 19.4322 7.91486 19.4322H27.1868C27.3769 19.4322 27.531 19.2781 27.531 19.0881V8.0755C27.531 7.88544 27.3769 7.73136 27.1868 7.73136H24.4337Z" fill="#2D2D2F"/>
<path fill-rule="evenodd" clip-rule="evenodd" d="M0 2.56915C0 1.2387 1.07854 0.160156 2.409 0.160156H21.681C23.0114 0.160156 24.09 1.2387 24.09 2.56915V13.5817C24.09 14.9122 23.0114 15.9907 21.681 15.9907H2.409C1.07854 15.9907 0 14.9122 0 13.5817V2.56915ZM2.409 2.22501C2.21893 2.22501 2.06485 2.37909 2.06485 2.56915V13.5817C2.06485 13.7718 2.21893 13.9258 2.409 13.9258H21.681C21.871 13.9258 22.0251 13.7718 22.0251 13.5817V2.56915C22.0251 2.37909 21.871 2.22501 21.681 2.22501H2.409Z" fill="#2D2D2F"/>
<path fill-rule="evenodd" clip-rule="evenodd" d="M0 6.69893C0 6.12874 0.462233 5.6665 1.03243 5.6665H23.0575C23.6277 5.6665 24.09 6.12874 24.09 6.69893C24.09 7.26912 23.6277 7.73136 23.0575 7.73136H1.03243C0.462233 7.73136 0 7.26912 0 6.69893Z" fill="#2D2D2F"/>
<path fill-rule="evenodd" clip-rule="evenodd" d="M4.12891 9.45186C4.12891 8.88167 4.59114 8.41943 5.16133 8.41943L10.6676 8.41943C11.2378 8.41943 11.7 8.88167 11.7 9.45186C11.7 10.0221 11.2378 10.4843 10.6676 10.4843L5.16133 10.4843C4.59114 10.4843 4.12891 10.0221 4.12891 9.45186Z" fill="#2D2D2F"/>
</svg>
