<svg width="26" height="23" viewBox="0 0 26 23" fill="none" xmlns="http://www.w3.org/2000/svg">
<path d="M16.9358 0C20.5115 0 23.4102 2.8604 23.4102 6.38889C23.4102 9.91737 20.5115 12.7778 16.9358 12.7778C13.36 12.7778 10.4613 9.91737 10.4613 6.38889C10.4613 2.8604 13.36 0 16.9358 0ZM20.8204 6.38889C20.8204 4.2718 19.0812 2.55556 16.9358 2.55556C14.7903 2.55556 13.0511 4.2718 13.0511 6.38889C13.0511 8.50598 14.7903 10.2222 16.9358 10.2222C19.0812 10.2222 20.8204 8.50598 20.8204 6.38889Z" fill="#76D1FF"/>
<path d="M6.69519 6.6678C7.05949 6.48452 7.46259 6.38897 7.8715 6.38897V3.83341C7.05365 3.83341 6.24743 4.02444 5.51881 4.39102C5.43856 4.43139 5.35951 4.47377 5.28171 4.51809C4.65318 4.87618 4.10701 5.36116 3.67954 5.94238C3.19917 6.59553 2.88236 7.35166 2.75506 8.14886C2.62776 8.94606 2.69357 9.76168 2.94711 10.529C3.20066 11.2962 3.63473 11.9934 4.21379 12.5633C4.79285 13.1332 5.50045 13.5597 6.27867 13.8079C6.97117 14.0287 7.70208 14.1028 8.42371 14.0264C8.51303 14.017 8.6022 14.0052 8.69114 13.9912C9.49814 13.8635 10.2631 13.5493 10.9234 13.0741L10.9248 13.0731L9.39812 11.0088C9.06781 11.2466 8.68507 11.4039 8.28131 11.4677C7.87755 11.5316 7.4642 11.5002 7.07511 11.3761C6.68601 11.252 6.33222 11.0388 6.0427 10.7538C5.75318 10.4689 5.53615 10.1203 5.40938 9.73668C5.28261 9.35305 5.24971 8.94525 5.31336 8.54666C5.37701 8.14807 5.53541 7.77002 5.77559 7.44346C6.01576 7.11689 6.3309 6.85108 6.69519 6.6678Z" fill="#76D1FF"/>
<path d="M2.69438 23C2.69438 22.3291 2.8283 21.6648 3.08847 21.045C3.34864 20.4252 3.72998 19.862 4.21073 19.3876C4.69147 18.9132 5.26219 18.5369 5.8903 18.2802C6.51842 18.0235 7.19163 17.8913 7.8715 17.8913V15.3333C6.98828 15.3333 6.11254 15.4819 5.28171 15.7718C5.15278 15.8168 5.02493 15.8652 4.89829 15.9169C3.95567 16.3022 3.09918 16.8669 2.37773 17.5788C1.65628 18.2908 1.084 19.1359 0.693548 20.0661C0.641096 20.1911 0.592064 20.3172 0.546478 20.4444C0.252737 21.2643 0.102142 22.1285 0.102142 23H2.69438Z" fill="#76D1FF"/>
<path d="M7.8715 23H10.4613C10.4613 19.4715 13.36 16.6111 16.9358 16.6111C20.5115 16.6111 23.4102 19.4715 23.4102 23H26C26 18.0601 21.9418 14.0556 16.9358 14.0556C11.9297 14.0556 7.8715 18.0601 7.8715 23Z" fill="#76D1FF"/>
</svg>
