<svg width="15" height="24" viewBox="0 0 15 24" fill="none" xmlns="http://www.w3.org/2000/svg">
<path fill-rule="evenodd" clip-rule="evenodd" d="M7.25 2.11904C4.40729 2.11904 1.5 4.74159 1.5 8.75338C1.5 11.756 2.63582 14.6802 3.97797 17.0761C5.18645 19.2334 6.52928 20.9042 7.25 21.7368C7.97072 20.9042 9.31355 19.2334 10.522 17.0761C11.8642 14.6802 13 11.756 13 8.75338C13 4.74159 10.0927 2.11904 7.25 2.11904ZM0 8.75338C0 3.83254 3.59271 0.5 7.25 0.5C10.9073 0.5 14.5 3.83254 14.5 8.75338C14.5 12.1746 13.2155 15.397 11.8056 17.9138C10.3905 20.44 8.80812 22.3277 8.12312 23.096C7.64281 23.6347 6.85719 23.6347 6.37688 23.096C5.69188 22.3277 4.1095 20.44 2.69436 17.9138C1.28452 15.397 0 12.1746 0 8.75338Z" fill="#2D2D2F"/>
<path fill-rule="evenodd" clip-rule="evenodd" d="M7.25 6.95253C6.2835 6.95253 5.5 7.79821 5.5 8.84141C5.5 9.88461 6.2835 10.7303 7.25 10.7303C8.2165 10.7303 9 9.88461 9 8.84141C9 7.79821 8.2165 6.95253 7.25 6.95253ZM4 8.84141C4 6.90404 5.45507 5.3335 7.25 5.3335C9.04493 5.3335 10.5 6.90404 10.5 8.84141C10.5 10.7788 9.04493 12.3493 7.25 12.3493C5.45507 12.3493 4 10.7788 4 8.84141Z" fill="#2D2D2F"/>
</svg>
