<svg width="241" height="152" viewBox="0 0 241 152" fill="none" xmlns="http://www.w3.org/2000/svg">
<circle cx="8.5" cy="8.5" r="8.5" fill="#76D1FF" fill-opacity="0.5"/>
<circle cx="8.5" cy="35.5" r="8.5" fill="#76D1FF" fill-opacity="0.5"/>
<circle cx="8.5" cy="62.5" r="8.5" fill="#76D1FF" fill-opacity="0.5"/>
<circle cx="8.5" cy="89.5" r="8.5" fill="#76D1FF" fill-opacity="0.5"/>
<circle cx="8.5" cy="116.5" r="8.5" fill="#76D1FF" fill-opacity="0.5"/>
<circle cx="8.5" cy="143.5" r="8.5" fill="#76D1FF" fill-opacity="0.5"/>
<circle cx="36.5" cy="8.5" r="8.5" fill="#76D1FF" fill-opacity="0.5"/>
<circle cx="36.5" cy="35.5" r="8.5" fill="#76D1FF" fill-opacity="0.5"/>
<circle cx="36.5" cy="62.5" r="8.5" fill="#76D1FF" fill-opacity="0.5"/>
<circle cx="36.5" cy="89.5" r="8.5" fill="#76D1FF" fill-opacity="0.5"/>
<circle cx="36.5" cy="116.5" r="8.5" fill="#76D1FF" fill-opacity="0.5"/>
<circle cx="36.5" cy="143.5" r="8.5" fill="#76D1FF" fill-opacity="0.5"/>
<circle cx="64.5" cy="8.5" r="8.5" fill="#76D1FF" fill-opacity="0.5"/>
<circle cx="64.5" cy="35.5" r="8.5" fill="#76D1FF" fill-opacity="0.5"/>
<circle cx="64.5" cy="62.5" r="8.5" fill="#76D1FF" fill-opacity="0.5"/>
<circle cx="64.5" cy="89.5" r="8.5" fill="#76D1FF" fill-opacity="0.5"/>
<circle cx="64.5" cy="116.5" r="8.5" fill="#76D1FF" fill-opacity="0.5"/>
<circle cx="64.5" cy="143.5" r="8.5" fill="#76D1FF" fill-opacity="0.5"/>
<circle cx="92.5" cy="8.5" r="8.5" fill="#76D1FF" fill-opacity="0.5"/>
<circle cx="92.5" cy="35.5" r="8.5" fill="#76D1FF" fill-opacity="0.5"/>
<circle cx="92.5" cy="62.5" r="8.5" fill="#76D1FF" fill-opacity="0.5"/>
<circle cx="92.5" cy="89.5" r="8.5" fill="#76D1FF" fill-opacity="0.5"/>
<circle cx="92.5" cy="116.5" r="8.5" fill="#76D1FF" fill-opacity="0.5"/>
<circle cx="92.5" cy="143.5" r="8.5" fill="#76D1FF" fill-opacity="0.5"/>
<circle cx="120.5" cy="8.5" r="8.5" fill="#76D1FF" fill-opacity="0.5"/>
<circle cx="120.5" cy="35.5" r="8.5" fill="#76D1FF" fill-opacity="0.5"/>
<circle cx="120.5" cy="62.5" r="8.5" fill="#76D1FF" fill-opacity="0.5"/>
<circle cx="120.5" cy="89.5" r="8.5" fill="#76D1FF" fill-opacity="0.5"/>
<circle cx="120.5" cy="116.5" r="8.5" fill="#76D1FF" fill-opacity="0.5"/>
<circle cx="120.5" cy="143.5" r="8.5" fill="#76D1FF" fill-opacity="0.5"/>
<circle cx="148.5" cy="8.5" r="8.5" fill="#76D1FF" fill-opacity="0.5"/>
<circle cx="148.5" cy="35.5" r="8.5" fill="#76D1FF" fill-opacity="0.5"/>
<circle cx="148.5" cy="62.5" r="8.5" fill="#76D1FF" fill-opacity="0.5"/>
<circle cx="148.5" cy="89.5" r="8.5" fill="#76D1FF" fill-opacity="0.5"/>
<circle cx="148.5" cy="116.5" r="8.5" fill="#76D1FF" fill-opacity="0.5"/>
<circle cx="148.5" cy="143.5" r="8.5" fill="#76D1FF" fill-opacity="0.5"/>
<circle cx="176.5" cy="8.5" r="8.5" fill="#76D1FF" fill-opacity="0.5"/>
<circle cx="176.5" cy="35.5" r="8.5" fill="#76D1FF" fill-opacity="0.5"/>
<circle cx="176.5" cy="62.5" r="8.5" fill="#76D1FF" fill-opacity="0.5"/>
<circle cx="176.5" cy="89.5" r="8.5" fill="#76D1FF" fill-opacity="0.5"/>
<circle cx="176.5" cy="116.5" r="8.5" fill="#76D1FF" fill-opacity="0.5"/>
<circle cx="176.5" cy="143.5" r="8.5" fill="#76D1FF" fill-opacity="0.5"/>
<circle cx="204.5" cy="8.5" r="8.5" fill="#76D1FF" fill-opacity="0.5"/>
<circle cx="204.5" cy="35.5" r="8.5" fill="#76D1FF" fill-opacity="0.5"/>
<circle cx="204.5" cy="62.5" r="8.5" fill="#76D1FF" fill-opacity="0.5"/>
<circle cx="204.5" cy="89.5" r="8.5" fill="#76D1FF" fill-opacity="0.5"/>
<circle cx="204.5" cy="116.5" r="8.5" fill="#76D1FF" fill-opacity="0.5"/>
<circle cx="204.5" cy="143.5" r="8.5" fill="#76D1FF" fill-opacity="0.5"/>
<circle cx="232.5" cy="8.5" r="8.5" fill="#76D1FF" fill-opacity="0.5"/>
<circle cx="232.5" cy="35.5" r="8.5" fill="#76D1FF" fill-opacity="0.5"/>
<circle cx="232.5" cy="62.5" r="8.5" fill="#76D1FF" fill-opacity="0.5"/>
<circle cx="232.5" cy="89.5" r="8.5" fill="#76D1FF" fill-opacity="0.5"/>
<circle cx="232.5" cy="116.5" r="8.5" fill="#76D1FF" fill-opacity="0.5"/>
<circle cx="232.5" cy="143.5" r="8.5" fill="#76D1FF" fill-opacity="0.5"/>
</svg>
