<svg width="23" height="23" viewBox="0 0 23 23" fill="none" xmlns="http://www.w3.org/2000/svg">
<path fill-rule="evenodd" clip-rule="evenodd" d="M15.8545 9.01362C16.1474 9.30651 16.1474 9.78138 15.8545 10.0743L11.8545 14.0743C11.7139 14.2149 11.5231 14.2939 11.3242 14.2939C11.1253 14.2939 10.9345 14.2149 10.7939 14.0743L6.79389 10.0743C6.501 9.78138 6.501 9.30651 6.79389 9.01361C7.08678 8.72072 7.56166 8.72072 7.85455 9.01361L11.3242 12.4833L14.7939 9.01362C15.0868 8.72072 15.5617 8.72072 15.8545 9.01362Z" fill="#2D2D2F"/>
<path fill-rule="evenodd" clip-rule="evenodd" d="M20.5742 11.5439C20.5742 6.43531 16.4329 2.29395 11.3242 2.29395C6.21558 2.29395 2.07422 6.43531 2.07422 11.5439C2.07422 16.6526 6.21558 20.7939 11.3242 20.7939C16.4329 20.7939 20.5742 16.6526 20.5742 11.5439ZM11.3242 0.793945C17.2613 0.793946 22.0742 5.60688 22.0742 11.5439C22.0742 17.481 17.2613 22.2939 11.3242 22.2939C5.38716 22.2939 0.574218 17.481 0.574219 11.5439C0.574219 5.60688 5.38716 0.793945 11.3242 0.793945Z" fill="#2D2D2F"/>
</svg>
