<svg width="31" height="44" viewBox="0 0 31 44" fill="none" xmlns="http://www.w3.org/2000/svg">
<path fill-rule="evenodd" clip-rule="evenodd" d="M15.5 0L31 14.045L28.9568 16.2852L27.0422 14.5503V22.9357H9.2208C9.20379 25.3871 9.17077 30.418 9.17077 31.5438C9.17077 32.6816 10.0204 32.6613 11.1842 32.5597C12.0071 32.4878 12.0536 31.156 12.0967 29.9234V29.9222C12.1066 29.6393 12.1163 29.3617 12.1352 29.1057C12.1352 27.8867 14.2914 24.4226 18.5821 24.5851C22.873 24.7476 24.7215 28.4793 25.1094 30.3248V36.3303H25.6156V37.6422H19.3383V36.3303H19.8977V32.6105C19.9652 31.6962 19.7662 29.8676 18.4304 29.8676C17.0945 29.8676 16.7943 31.6962 16.8112 32.6105C16.8517 36.9177 12.544 37.893 10.3851 37.8422C4.83947 37.8015 3.72292 33.1523 3.85789 30.8327V22.9357H3.85655V14.642L2.04319 16.2852L0 14.045L5.92199 8.6789H5.87236V1.61468H9.61852V5.32937L15.5 0ZM6.3786 12.9174H11.7447V20.3853H6.3786V12.9174Z" fill="white"/>
<path d="M22.4263 44C23.5167 44 24.4007 43.2067 24.4007 42.2282C24.4007 41.2497 22.4263 38.1468 22.4263 38.1468C22.4263 38.1468 20.452 41.2497 20.452 42.2282C20.452 43.2067 21.3359 44 22.4263 44Z" fill="white"/>
</svg>
