<svg width="32" height="44" viewBox="0 0 32 44" fill="none" xmlns="http://www.w3.org/2000/svg">
<path fill-rule="evenodd" clip-rule="evenodd" d="M16 0L31.5 14.045L29.4568 16.2852L27.5422 14.5503V22.9357H9.7208C9.70379 25.3871 9.67077 30.418 9.67077 31.5438C9.67077 32.6816 10.5204 32.6613 11.6842 32.5597C12.5071 32.4878 12.5536 31.156 12.5967 29.9234V29.9222C12.6066 29.6393 12.6163 29.3617 12.6352 29.1057C12.6352 27.8867 14.7914 24.4226 19.0821 24.5851C23.373 24.7476 25.2215 28.4793 25.6094 30.3248V36.3303H26.1156V37.6422H19.8383V36.3303H20.3977V32.6105C20.4652 31.6962 20.2662 29.8676 18.9304 29.8676C17.5945 29.8676 17.2943 31.6962 17.3112 32.6105C17.3517 36.9177 13.044 37.893 10.8851 37.8422C5.33947 37.8015 4.22292 33.1523 4.35789 30.8327V22.9357H4.35655V14.642L2.54319 16.2852L0.5 14.045L6.42199 8.6789H6.37236V1.61468H10.1185V5.32937L16 0ZM6.8786 12.9174H12.2447V20.3853H6.8786V12.9174Z" fill="#84C558"/>
<path d="M22.9263 44C24.0167 44 24.9007 43.2067 24.9007 42.2282C24.9007 41.2497 22.9263 38.1468 22.9263 38.1468C22.9263 38.1468 20.952 41.2497 20.952 42.2282C20.952 43.2067 21.8359 44 22.9263 44Z" fill="#84C558"/>
</svg>
