<svg width="90" height="92" viewBox="0 0 90 92" fill="none" xmlns="http://www.w3.org/2000/svg">
<g filter="url(#filter0_d)">
<ellipse rx="40" ry="41" transform="matrix(-1 0 0 1 45 46)" fill="#FD9800"/>
</g>
<path d="M43.5858 23.0067C44.3668 22.2256 45.6332 22.2256 46.4142 23.0067L59.1421 35.7346C59.9232 36.5157 59.9232 37.782 59.1421 38.563C58.3611 39.3441 57.0948 39.3441 56.3137 38.563L45 27.2493L33.6863 38.563C32.9052 39.3441 31.6389 39.3441 30.8579 38.563C30.0768 37.782 30.0768 36.5157 30.8579 35.7346L43.5858 23.0067ZM47 24.4209L47 66.4998L43 66.4998L43 24.4209L47 24.4209Z" fill="#F8F8F8"/>
<defs>
<filter id="filter0_d" x="0" y="0" width="90" height="92" filterUnits="userSpaceOnUse" color-interpolation-filters="sRGB">
<feFlood flood-opacity="0" result="BackgroundImageFix"/>
<feColorMatrix in="SourceAlpha" type="matrix" values="0 0 0 0 0 0 0 0 0 0 0 0 0 0 0 0 0 0 127 0" result="hardAlpha"/>
<feOffset/>
<feGaussianBlur stdDeviation="2.5"/>
<feComposite in2="hardAlpha" operator="out"/>
<feColorMatrix type="matrix" values="0 0 0 0 0.596078 0 0 0 0 0.603922 0 0 0 0 0.662745 0 0 0 0.2 0"/>
<feBlend mode="normal" in2="BackgroundImageFix" result="effect1_dropShadow"/>
<feBlend mode="normal" in="SourceGraphic" in2="effect1_dropShadow" result="shape"/>
</filter>
</defs>
</svg>
